<?xml version="1.0" standalone="no"?>
<!DOCTYPE svg PUBLIC "-//W3C//DTD SVG 20010904//EN"
 "http://www.w3.org/TR/2001/REC-SVG-20010904/DTD/svg10.dtd">
<svg version="1.0" xmlns="http://www.w3.org/2000/svg"
 width="500.000000pt" height="500.000000pt" viewBox="0 0 500.000000 500.000000"
 preserveAspectRatio="xMidYMid meet">

<g transform="translate(0.000000,500.000000) scale(0.100000,-0.100000)"
fill="#000000" stroke="none">
<path d="M2340 4360 c-330 -26 -683 -162 -960 -369 -158 -118 -342 -315 -450
-481 -94 -146 -198 -389 -244 -575 -67 -268 -67 -595 0 -870 60 -243 184 -506
331 -698 65 -85 213 -237 298 -307 198 -162 427 -281 681 -355 316 -92 692
-92 1008 0 454 132 836 418 1078 807 186 299 280 630 281 988 1 294 -57 545
-188 815 -289 596 -873 994 -1535 1046 -128 10 -163 9 -300 -1z m-183 -376
c-3 -3 -12 -4 -19 -1 -8 3 -5 6 6 6 11 1 17 -2 13 -5z m120 0 c-3 -3 -12 -4
-19 -1 -8 3 -5 6 6 6 11 1 17 -2 13 -5z m60 -45 c39 -19 93 -76 106 -112 2 -7
7 -10 10 -7 4 3 0 18 -8 34 -20 37 -6 62 48 87 75 34 139 20 189 -40 25 -29
26 -29 105 -24 105 7 159 -15 197 -80 35 -59 51 -139 42 -202 -6 -40 -16 -58
-49 -91 -69 -68 -169 -71 -252 -8 -25 19 -45 30 -45 25 0 -18 61 -61 103 -72
58 -17 72 -33 22 -25 -129 19 -316 26 -405 16 -110 -12 -250 -36 -299 -50 -19
-5 -36 -8 -38 -7 -5 6 50 83 90 125 23 23 37 42 31 42 -5 0 -28 -18 -49 -41
l-40 -41 -72 4 c-60 3 -76 7 -98 28 -43 40 -58 79 -58 145 1 151 109 284 256
315 63 13 163 4 214 -21z m491 -36 c-10 -2 -26 -2 -35 0 -10 3 -2 5 17 5 19 0
27 -2 18 -5z m278 -168 c29 -22 85 -120 114 -200 14 -39 34 -62 95 -110 54
-43 100 -65 234 -115 46 -17 97 -41 114 -53 155 -110 138 -256 -50 -451 -121
-125 -127 -144 -118 -321 5 -114 4 -149 -8 -177 -17 -40 -79 -94 -157 -134
-52 -28 -61 -29 -185 -29 -71 0 -169 6 -217 14 -87 14 -88 14 -80 40 11 40 7
191 -6 237 -6 22 -27 58 -46 80 l-33 39 56 93 c32 53 69 100 86 111 45 27 74
63 81 99 6 28 2 37 -30 66 -32 31 -36 40 -36 88 0 29 -7 98 -14 153 -7 55 -11
127 -8 161 4 57 2 62 -23 82 -30 24 -27 26 38 37 57 9 112 69 127 137 12 53 9
88 -16 176 -6 21 -5 22 22 12 16 -6 43 -22 60 -35z m-1303 -11 l47 -6 0 -66
c1 -129 54 -193 167 -200 l62 -4 -22 -40 c-12 -22 -35 -46 -51 -55 -27 -14
-28 -17 -23 -65 4 -27 12 -65 19 -84 9 -27 9 -52 0 -117 -7 -46 -12 -100 -12
-121 0 -29 -6 -43 -25 -58 -37 -29 -33 -76 11 -156 20 -35 63 -91 95 -123 32
-32 59 -66 59 -74 0 -9 -11 -28 -25 -43 -29 -31 -53 -102 -62 -183 -6 -61 14
-149 48 -207 10 -18 19 -37 19 -42 0 -4 -24 -14 -52 -21 -99 -24 -344 -7 -433
30 -42 17 -150 95 -194 139 -75 76 -121 177 -121 265 0 96 22 158 120 345 27
52 32 130 10 173 -6 13 -58 69 -114 124 -87 85 -105 107 -116 148 -16 58 -9
197 13 248 36 87 128 151 262 182 110 26 174 28 318 11z m1583 -198 c41 -41
46 -86 12 -110 -33 -23 -75 5 -114 77 -37 68 42 93 102 33z m-669 -110 c78 -8
147 -17 153 -21 5 -3 10 -31 10 -62 0 -53 -1 -55 -22 -49 -82 22 -166 28 -312
23 -179 -6 -310 -25 -432 -62 -45 -14 -86 -25 -91 -25 -11 0 -35 88 -27 101
20 33 146 70 320 93 130 18 228 18 401 2z m8 -136 c17 -14 55 -112 55 -140 0
-17 -2 -17 -29 -4 -39 19 -143 29 -167 16 -15 -9 -5 -11 51 -12 46 0 84 -7
112 -19 41 -19 41 -20 48 -83 8 -82 -8 -189 -35 -233 -53 -86 -198 -158 -315
-157 -68 0 -203 53 -248 97 -60 58 -79 112 -78 218 1 112 14 197 38 245 17 36
21 38 103 54 166 34 433 44 465 18z m147 -18 c9 -9 37 -279 31 -302 -3 -11
-16 -26 -30 -35 -31 -21 -53 -72 -53 -124 0 -32 -6 -44 -40 -75 -22 -19 -76
-52 -120 -73 -44 -21 -80 -44 -80 -50 0 -8 -14 -13 -34 -13 -49 0 -57 -20 -9
-21 l38 -1 -40 -10 c-47 -11 -173 -3 -192 13 -24 21 -13 29 32 22 28 -3 45 -2
45 5 0 5 -24 13 -52 17 -51 7 -130 42 -192 84 -19 13 -35 35 -43 63 l-12 42
40 -47 c45 -53 80 -73 183 -107 52 -17 83 -21 125 -17 73 6 173 41 226 77 51
35 108 116 135 192 24 69 39 205 22 194 -7 -4 -12 -17 -12 -28 0 -12 -6 -51
-12 -87 l-13 -66 -6 115 c-6 105 -16 150 -53 241 -6 14 0 15 51 7 32 -5 61
-12 65 -16z m-732 -34 c0 -2 -7 -25 -15 -52 -8 -26 -18 -92 -22 -144 -7 -102
-16 -102 -28 1 -8 61 -25 88 -25 39 0 -29 15 -121 25 -153 5 -16 3 -16 -30 0
l-36 16 6 70 c19 212 12 190 59 208 38 14 66 21 66 15z m-834 -163 c18 -19 24
-34 22 -57 -6 -64 -78 -64 -104 -1 -31 73 27 113 82 58z m122 -132 c4 -57 -12
-93 -42 -93 -16 0 -30 8 -37 21 -14 27 -3 103 18 124 25 25 57 -2 61 -52z
m1534 -38 c17 -37 -10 -87 -65 -119 -24 -15 -50 -40 -59 -58 -26 -54 -118
-194 -118 -179 0 8 27 61 60 118 40 71 60 116 60 138 0 19 4 45 10 59 24 64
90 88 112 41z m-952 -20 c0 -5 -5 -3 -10 5 -5 8 -10 20 -10 25 0 6 5 3 10 -5
5 -8 10 -19 10 -25z m72 -23 c25 -46 43 -102 34 -102 -3 0 -22 36 -44 79 -41
84 -32 103 10 23z m-32 -95 c34 -65 60 -120 58 -123 -10 -9 -111 149 -124 194
-30 100 -15 83 66 -71z m-23 -40 c43 -63 48 -76 14 -37 -41 47 -91 142 -91
171 0 16 9 4 24 -34 14 -32 37 -77 53 -100z m-657 43 c-9 -23 -18 -30 -34 -28
-29 4 -32 42 -6 68 20 20 24 21 38 7 13 -13 13 -20 2 -47z m720 -21 c0 -4 3
-16 6 -26 3 -10 -8 5 -25 34 -37 63 -40 80 -6 33 14 -19 25 -37 25 -41z m49
-83 c0 -26 -2 -28 -8 -11 -4 11 -11 34 -15 50 -6 28 -5 29 9 11 8 -11 15 -34
14 -50z m1481 30 c12 -31 -3 -125 -21 -137 -18 -11 -40 -11 -58 0 -21 14 -10
130 14 147 29 21 54 17 65 -10z m-865 -33 c-41 -72 -44 -74 -88 -56 l-38 15
73 43 c40 24 75 43 76 44 2 1 -8 -20 -23 -46z m-482 -33 c4 -3 -15 -15 -43
-27 -58 -25 -64 -20 -74 50 l-7 48 58 -32 c32 -18 61 -35 66 -39z m36 -57 c23
-89 24 -93 8 -93 -8 0 -17 13 -20 33 -3 17 -9 47 -13 65 -9 46 13 41 25 -5z
m317 5 c-4 -18 -10 -48 -13 -65 -3 -19 -12 -33 -19 -33 -16 0 -17 2 -3 60 13
62 17 70 30 70 8 0 9 -11 5 -32z m-442 -35 c14 -24 22 -43 17 -43 -11 0 -51
62 -51 80 0 16 1 15 34 -37z m501 33 c17 -12 16 -13 -10 -20 -32 -8 -38 -5
-29 18 7 20 15 20 39 2z m-424 -13 c12 -15 12 -16 -4 -10 -10 4 -23 7 -28 7
-6 0 -7 5 -4 10 9 15 21 12 36 -7z m1419 -19 c19 -22 1 -69 -25 -69 -37 0 -31
84 6 85 4 0 12 -7 19 -16z m-1110 -10 c0 -38 -12 -44 -82 -44 -38 0 -79 5 -90
11 -16 8 -19 8 -13 -1 5 -8 1 -11 -11 -8 -9 1 -21 15 -25 29 l-7 27 114 -1
c83 -1 114 -4 114 -13z m-297 -31 l18 -32 -37 -33 c-69 -62 -84 -60 -90 12
l-3 41 34 -7 c49 -9 61 3 33 33 l-23 25 24 -4 c15 -2 32 -16 44 -35z m407 12
c-19 -20 -20 -25 -8 -30 9 -4 28 -5 44 -3 25 3 28 0 30 -30 0 -17 -4 -40 -11
-49 -12 -16 -16 -15 -54 11 -58 41 -63 49 -51 82 13 32 26 44 54 44 18 0 18
-2 -4 -25z m106 -2 c45 -49 70 -198 48 -289 -11 -48 -50 -117 -83 -148 -29
-28 -33 -29 -102 -23 -71 6 -179 47 -179 68 0 5 21 24 47 42 78 54 121 97 128
128 4 16 13 29 20 29 8 0 22 14 32 30 9 17 25 30 34 30 19 0 29 28 29 83 0 26
-4 37 -15 37 -17 0 -18 2 -9 24 9 23 21 20 50 -11z m-633 -14 c-11 -11 -10
-32 3 -96 3 -17 11 -23 29 -23 35 0 36 -46 1 -60 -21 -8 -46 -37 -46 -54 0 -3
16 6 36 19 20 14 45 25 55 25 10 0 28 11 41 24 22 24 61 42 195 91 l62 23 32
-24 c18 -13 35 -21 38 -18 3 3 -5 13 -18 23 -33 25 -19 46 17 27 36 -20 82
-64 82 -79 0 -7 -6 -19 -12 -25 -10 -10 -16 -8 -30 10 -18 23 -18 23 -13 -17
8 -54 -16 -90 -102 -154 -37 -27 -80 -59 -94 -70 -85 -66 -269 -90 -269 -36 0
9 -4 13 -10 10 -5 -3 -10 1 -10 10 0 8 -7 18 -16 22 -8 3 -13 12 -10 20 3 8 2
11 -3 8 -14 -8 -43 102 -44 165 -2 91 58 229 86 201 8 -8 8 -14 0 -22z m1445
-22 c4 -30 -12 -57 -34 -57 -20 0 -37 38 -30 67 5 19 12 24 34 21 21 -2 28 -9
30 -31z m-1091 -18 c-11 -6 -34 -11 -52 -11 -18 0 -41 5 -52 11 -14 8 -3 10
52 10 55 0 66 -2 52 -10z m-179 -22 c-16 -13 -28 -29 -29 -37 0 -8 -13 -25
-29 -38 l-29 -23 -11 22 c-14 25 5 51 60 80 50 26 71 24 38 -4z m72 -3 c0 -6
-59 -34 -72 -34 -7 0 0 11 17 24 24 20 55 25 55 10z m519 -318 c14 -17 -10
-46 -39 -46 -25 0 -43 33 -28 48 16 16 53 15 67 -2z m-1006 -174 c10 -9 28
-35 39 -56 l20 -39 18 40 c28 64 78 95 125 77 33 -13 83 -158 101 -291 10 -78
1 -100 -45 -114 -56 -17 -71 -8 -71 43 0 61 -19 181 -30 192 -8 8 -27 -45 -46
-129 -10 -44 -22 -55 -61 -55 -18 0 -35 6 -38 13 -2 6 -14 49 -26 94 -11 46
-25 81 -29 78 -10 -6 -21 -67 -29 -165 -6 -75 -6 -75 -36 -78 -41 -3 -77 18
-86 50 -16 59 45 298 88 344 20 21 30 25 55 20 18 -3 40 -14 51 -24z m715 16
c7 -7 12 -19 12 -27 0 -11 -4 -10 -20 4 -21 19 -26 35 -12 35 4 0 13 -5 20
-12z m-189 -119 c45 -16 61 -54 61 -143 0 -41 5 -87 10 -102 7 -19 7 -30 -1
-40 -15 -18 -53 -18 -69 0 -8 11 -18 12 -36 5 -66 -24 -163 7 -165 53 -2 40 2
61 18 85 22 34 50 46 113 53 55 6 55 6 25 19 -24 10 -36 9 -72 -4 -58 -22
-102 2 -75 41 29 42 120 58 191 33z m761 -4 c42 -22 51 -45 55 -143 1 -48 6
-99 10 -114 6 -24 4 -28 -19 -34 -16 -4 -35 -1 -49 9 -15 10 -29 12 -38 6 -38
-24 -134 -3 -161 35 -19 27 -7 77 26 113 30 33 41 38 93 43 55 6 57 7 30 18
-22 9 -36 9 -71 -3 -47 -16 -71 -13 -80 12 -7 18 19 51 49 64 33 13 124 10
155 -6z m-554 -9 c3 -8 14 -11 28 -9 13 3 38 -2 55 -11 28 -15 34 -15 53 -1
31 21 84 19 118 -5 34 -24 57 -78 65 -156 8 -76 -8 -104 -52 -89 -26 10 -28
14 -33 79 -4 52 -10 71 -25 82 -31 23 -40 11 -43 -57 -3 -91 -9 -109 -33 -109
-47 0 -59 17 -59 84 0 67 -13 91 -47 84 -15 -3 -18 -14 -19 -76 0 -40 -5 -77
-11 -83 -6 -6 -28 -9 -49 -7 -36 3 -40 7 -52 43 -18 52 -10 186 12 220 12 19
25 25 52 25 20 0 37 -6 40 -14z m804 -106 c0 -5 -7 -10 -16 -10 -8 0 -12 5 -9
10 3 6 10 10 16 10 5 0 9 -4 9 -10z m-1340 -229 c0 -13 -11 -16 -49 -16 -27 0
-52 -2 -54 -5 -3 -3 -2 -20 0 -38 5 -29 9 -33 29 -29 12 2 28 1 35 -3 17 -11
1 -30 -26 -30 -24 0 -24 -1 -18 -65 6 -72 -4 -95 -42 -95 -48 0 -61 51 -50
193 8 106 16 127 41 111 12 -7 31 -7 63 2 49 12 71 5 71 -25z m170 -114 c-5
-14 -15 -21 -29 -20 -23 3 -29 -13 -33 -92 -2 -39 -7 -51 -21 -53 -35 -7 -47
17 -47 92 0 44 -4 66 -9 57 -5 -7 -14 -12 -21 -9 -9 3 -5 13 11 32 l24 28 27
-21 27 -21 26 26 c20 20 29 23 40 14 9 -8 11 -18 5 -33z m127 24 c32 -9 43
-18 52 -41 13 -37 6 -55 -40 -108 -41 -48 -76 -55 -110 -21 -17 17 -20 29 -16
60 5 41 53 133 65 125 4 -2 26 -9 49 -15z m499 -2 c21 -20 24 -20 39 -5 21 20
49 21 69 0 11 -11 16 -35 16 -82 0 -45 3 -62 10 -52 14 23 24 3 12 -25 -14
-31 -51 -33 -77 -5 -14 15 -17 32 -13 85 4 63 -3 83 -17 48 -3 -10 -9 -48 -12
-85 -5 -63 -8 -68 -29 -68 -35 0 -47 32 -42 114 3 69 2 71 -14 52 -22 -29 -35
-13 -14 19 20 31 42 32 72 4z m-114 -1 c35 -29 26 -82 -17 -98 -16 -6 -25 -17
-25 -30 0 -20 1 -20 35 6 44 33 48 12 6 -34 -21 -22 -39 -32 -60 -32 -43 0
-61 23 -61 78 0 60 29 109 67 115 15 2 31 5 34 6 3 0 12 -5 21 -11z m-222 -8
c42 0 50 -3 56 -22 12 -34 6 -49 -34 -90 -41 -43 -38 -57 9 -34 44 22 49 20
49 -13 0 -28 -2 -29 -57 -33 -69 -5 -80 -2 -88 22 -8 25 8 62 45 104 23 26 27
34 14 30 -11 -4 -27 -16 -37 -28 -17 -21 -17 -21 -32 -2 -26 34 -17 83 13 71
7 -3 35 -5 62 -5z m-901 -69 c28 -18 4 -38 -55 -44 -65 -7 -74 -4 -74 23 0 14
9 20 38 23 68 7 77 7 91 -2z m1788 -5 c2 -2 1 -10 -2 -18 -8 -19 -113 -32
-132 -16 -22 18 -9 33 33 39 36 6 93 3 101 -5z"/>
<path d="M3201 3309 c-20 -21 -67 -157 -58 -166 7 -6 76 39 115 75 38 36 44
85 13 102 -29 15 -48 12 -70 -11z"/>
<path d="M3359 3145 c-54 -46 -75 -72 -66 -81 10 -10 149 15 173 30 30 21 33
70 5 86 -35 18 -58 11 -112 -35z"/>
<path d="M3410 2953 c-48 -8 -120 -37 -117 -47 5 -14 124 -55 159 -56 17 0 33
8 42 22 21 30 20 44 -4 68 -20 20 -30 21 -80 13z"/>
<path d="M3118 2918 c-27 -11 -48 -25 -48 -30 0 -5 3 -8 8 -6 4 2 28 11 55 22
26 10 47 23 47 27 0 12 -8 11 -62 -13z"/>
<path d="M3114 2602 c3 -5 30 -13 59 -17 28 -3 60 -9 70 -11 9 -3 17 -1 17 5
0 10 -22 16 -104 27 -33 4 -47 3 -42 -4z"/>
<path d="M3060 2280 c0 -11 33 -30 52 -30 7 0 2 9 -12 20 -28 22 -40 25 -40
10z"/>
<path d="M1740 2933 c0 -4 21 -17 47 -28 26 -11 51 -21 55 -23 4 -2 8 1 8 7 0
6 -15 17 -33 25 -54 22 -77 28 -77 19z"/>
<path d="M1750 2603 c-77 -11 -90 -15 -86 -22 6 -10 146 9 146 20 0 9 -14 10
-60 2z"/>
<path d="M1829 2271 c-13 -11 -21 -22 -18 -25 3 -4 17 2 30 13 13 11 21 22 18
25 -3 4 -17 -2 -30 -13z"/>
<path d="M2215 3151 c-38 -10 -75 -29 -75 -41 0 -4 15 -1 33 8 18 9 65 18 106
20 47 3 68 7 60 13 -16 10 -81 10 -124 0z"/>
<path d="M2208 2988 c-21 -10 -25 -17 -19 -27 8 -12 14 -13 36 -3 32 15 75 15
111 2 38 -15 42 -5 6 14 -43 22 -102 28 -134 14z"/>
<path d="M2605 2985 c-22 -8 -41 -15 -42 -15 -2 0 -3 -4 -3 -9 0 -4 18 -3 40
2 29 8 52 8 83 0 26 -7 46 -8 52 -2 28 28 -70 46 -130 24z"/>
<path d="M2328 2083 c7 -3 16 -2 19 1 4 3 -2 6 -13 5 -11 0 -14 -3 -6 -6z"/>
<path d="M2270 2070 c-8 -5 -10 -10 -5 -10 6 0 17 5 25 10 8 5 11 10 5 10 -5
0 -17 -5 -25 -10z"/>
<path d="M2352 1668 c-16 -16 -15 -48 1 -49 39 -4 70 20 60 47 -6 17 -45 18
-61 2z"/>
<path d="M3099 1664 c-9 -11 -10 -20 -2 -32 19 -30 82 -1 70 32 -8 21 -51 21
-68 0z"/>
<path d="M2377 1295 c-12 -26 -15 -41 -8 -48 12 -12 33 36 29 66 -2 16 -7 12
-21 -18z"/>
<path d="M2761 1334 c0 -11 3 -14 6 -6 3 7 2 16 -1 19 -3 4 -6 -2 -5 -13z"/>
</g>
</svg>
